<?xml version="1.0" standalone="no"?>
<!DOCTYPE svg PUBLIC "-//W3C//DTD SVG 20010904//EN"
 "http://www.w3.org/TR/2001/REC-SVG-20010904/DTD/svg10.dtd">
<svg version="1.0" xmlns="http://www.w3.org/2000/svg"
 width="500.000000pt" height="111.000000pt" viewBox="0 0 500.000000 111.000000"
 preserveAspectRatio="xMidYMid meet">

<g transform="translate(0.000000,111.000000) scale(0.100000,-0.100000)"
fill="#000000" stroke="none">
<path d="M1030 1099 c-65 -13 -130 -57 -165 -113 -30 -49 -30 -50 -33 -222 -3
-159 -2 -176 19 -224 13 -29 39 -65 62 -86 63 -53 115 -64 304 -64 l163 0 0
80 0 80 -154 0 c-85 0 -166 4 -180 10 -27 10 -52 43 -58 75 -3 19 4 20 107 26
120 6 148 15 204 71 59 57 74 106 79 251 l4 127 -153 -1 c-85 -1 -174 -5 -199
-10z m185 -159 c11 -18 -6 -68 -32 -94 -24 -24 -33 -26 -110 -26 -95 0 -103 6
-79 64 10 24 26 41 48 51 38 16 164 20 173 5z"/>
<path d="M1460 751 l0 -361 80 0 80 0 2 278 3 277 50 3 c67 5 118 -12 149 -49
l26 -31 0 -239 0 -239 80 0 80 0 0 253 c0 243 -1 254 -24 302 -27 59 -98 125
-153 144 -22 8 -108 15 -205 18 l-168 5 0 -361z"/>
<path d="M2323 1099 c-64 -12 -109 -37 -149 -81 -65 -73 -74 -103 -74 -279 0
-147 1 -158 26 -207 49 -99 135 -142 281 -142 l83 0 0 -97 c0 -77 5 -108 21
-143 23 -51 70 -105 112 -126 l27 -15 0 551 0 550 -142 -1 c-79 -1 -162 -5
-185 -10z m165 -426 c1 -150 -1 -273 -5 -273 -5 0 -26 33 -48 73 -36 64 -44
72 -75 77 -45 8 -77 25 -90 50 -5 10 -10 75 -10 143 0 112 2 127 22 152 31 39
74 55 143 52 l60 -2 3 -272z"/>
<path d="M2732 858 c3 -231 5 -257 24 -298 30 -65 69 -107 128 -138 49 -26 58
-27 229 -30 l177 -4 0 361 0 361 -80 0 -80 0 -2 -277 -3 -278 -70 -3 c-60 -2
-76 1 -105 20 -53 36 -59 65 -59 316 l-1 222 -81 0 -81 0 4 -252z"/>
<path d="M3580 1100 c-82 -17 -146 -64 -183 -134 -20 -38 -22 -55 -22 -216 0
-193 4 -210 69 -278 65 -70 91 -77 294 -80 l182 -4 0 81 0 81 -161 0 -161 0
-35 35 c-58 58 -46 69 77 75 115 6 161 23 212 77 54 57 68 106 68 246 l0 127
-152 -1 c-84 -1 -169 -5 -188 -9z m180 -186 c0 -26 -8 -43 -29 -65 -28 -28
-34 -29 -115 -29 -78 0 -86 2 -86 19 0 73 54 111 158 111 l72 0 0 -36z"/>
<path d="M4213 1100 c-23 -5 -55 -16 -71 -24 -43 -22 -107 -98 -120 -144 -8
-26 -12 -127 -12 -291 l0 -251 80 0 80 0 0 240 c0 157 4 248 11 264 16 35 71
59 125 54 l44 -3 0 82 0 83 -47 -1 c-27 -1 -67 -5 -90 -9z"/>
<path d="M4613 1100 c-82 -17 -145 -69 -182 -150 -19 -41 -21 -65 -21 -303 l0
-258 203 3 c200 3 202 3 249 31 26 15 59 43 74 62 49 65 53 91 54 368 l0 257
-167 -1 c-93 -1 -187 -5 -210 -9z m215 -323 l2 -168 -29 -30 c-29 -28 -32 -29
-130 -29 l-101 0 0 164 c0 152 2 165 21 190 31 39 53 45 149 43 l85 -2 3 -168z"/>
</g>
</svg>
